<?xml version="1.0" encoding="UTF-8"?><svg xmlns="http://www.w3.org/2000/svg" xmlns:xlink="http://www.w3.org/1999/xlink" height="241.1" preserveAspectRatio="xMidYMid meet" version="1.0" viewBox="128.7 143.6 257.5 241.1" width="257.5" zoomAndPan="magnify"><g><g id="change1_1"><path d="M379.34,244.52c6.83,14.66,3.89,28.88-1.55,40.07c-8.06,16.58-21.04,29.26-34.18,41.53 c-1.53,1.43-2.97,2.94-4.33,4.52c-6.92,8.04-32.3,35.7-62.93,47.13c-11.29,4.21-24.29,6.94-38.39,2.23 c-11.8-3.95-22.96-12.66-32.95-21.9c-36.8-34.03-63.7-79.13-72.91-122.24c-2.2-10.32-3.43-20.69-1.6-29.74 c2.48-12.2,10.28-21.09,18.02-29.56c10.46-11.46,21.53-23.01,37.43-27.49c19.45-5.48,43.72,0.28,66.94,7.62 c12.05,3.81,24.16,8.08,36.04,13.95c20.93,10.34,40.5,25.32,59.57,40.48C360.51,220.66,373.17,231.27,379.34,244.52z" fill="#df9c56"/></g></g></svg>